<svg xmlns="http://www.w3.org/2000/svg" viewBox="0 0 900 620" width="900" height="620">
  <defs>
    <!-- Gradient for the infinity/DevOps loop -->
    <linearGradient id="loopGradient" x1="0%" y1="0%" x2="100%" y2="0%">
      <stop offset="0%" style="stop-color:#00B4D8;stop-opacity:1" />
      <stop offset="50%" style="stop-color:#6C63FF;stop-opacity:1" />
      <stop offset="100%" style="stop-color:#FF6B6B;stop-opacity:1" />
    </linearGradient>

    <!-- AI/AIOps gradient (electric) -->
    <linearGradient id="aiGrad" x1="0%" y1="0%" x2="100%" y2="0%">
      <stop offset="0%" style="stop-color:#00F5A0;stop-opacity:1" />
      <stop offset="100%" style="stop-color:#00D9F5;stop-opacity:1" />
    </linearGradient>

    <!-- Gold accent gradient -->
    <linearGradient id="goldGrad" x1="0%" y1="0%" x2="100%" y2="100%">
      <stop offset="0%" style="stop-color:#F59E0B;stop-opacity:1" />
      <stop offset="100%" style="stop-color:#FBBF24;stop-opacity:1" />
    </linearGradient>

    <!-- DevSecOps gradient -->
    <linearGradient id="secGrad" x1="0%" y1="0%" x2="100%" y2="0%">
      <stop offset="0%" style="stop-color:#EF4444;stop-opacity:1" />
      <stop offset="100%" style="stop-color:#F97316;stop-opacity:1" />
    </linearGradient>

    <!-- Glow filter -->
    <filter id="glow">
      <feGaussianBlur stdDeviation="3" result="coloredBlur"/>
      <feMerge>
        <feMergeNode in="coloredBlur"/>
        <feMergeNode in="SourceGraphic"/>
      </feMerge>
    </filter>

    <!-- Soft glow -->
    <filter id="softGlow">
      <feGaussianBlur stdDeviation="2" result="coloredBlur"/>
      <feMerge>
        <feMergeNode in="coloredBlur"/>
        <feMergeNode in="SourceGraphic"/>
      </feMerge>
    </filter>

    <!-- Shadow filter -->
    <filter id="shadow" x="-5%" y="-5%" width="110%" height="110%">
      <feDropShadow dx="0" dy="4" stdDeviation="6" flood-color="#000" flood-opacity="0.3"/>
    </filter>

    <!-- Pill shadow -->
    <filter id="pillShadow" x="-10%" y="-10%" width="120%" height="140%">
      <feDropShadow dx="0" dy="2" stdDeviation="3" flood-color="#000" flood-opacity="0.25"/>
    </filter>
  </defs>

  <!-- Background -->
  <rect width="900" height="620" rx="20" ry="20" fill="#0B1120"/>

  <!-- Subtle radial glow behind center -->
  <ellipse cx="450" cy="250" rx="350" ry="200" fill="#6C63FF" opacity="0.03"/>
  <ellipse cx="450" cy="250" rx="200" ry="120" fill="#00B4D8" opacity="0.04"/>

  <!-- Subtle grid pattern -->
  <g opacity="0.04">
    <line x1="0" y1="50" x2="900" y2="50" stroke="#fff" stroke-width="0.5"/>
    <line x1="0" y1="100" x2="900" y2="100" stroke="#fff" stroke-width="0.5"/>
    <line x1="0" y1="150" x2="900" y2="150" stroke="#fff" stroke-width="0.5"/>
    <line x1="0" y1="200" x2="900" y2="200" stroke="#fff" stroke-width="0.5"/>
    <line x1="0" y1="250" x2="900" y2="250" stroke="#fff" stroke-width="0.5"/>
    <line x1="0" y1="300" x2="900" y2="300" stroke="#fff" stroke-width="0.5"/>
    <line x1="0" y1="350" x2="900" y2="350" stroke="#fff" stroke-width="0.5"/>
    <line x1="0" y1="400" x2="900" y2="400" stroke="#fff" stroke-width="0.5"/>
    <line x1="0" y1="450" x2="900" y2="450" stroke="#fff" stroke-width="0.5"/>
    <line x1="0" y1="500" x2="900" y2="500" stroke="#fff" stroke-width="0.5"/>
    <line x1="0" y1="550" x2="900" y2="550" stroke="#fff" stroke-width="0.5"/>
    <line x1="50" y1="0" x2="50" y2="620" stroke="#fff" stroke-width="0.5"/>
    <line x1="100" y1="0" x2="100" y2="620" stroke="#fff" stroke-width="0.5"/>
    <line x1="150" y1="0" x2="150" y2="620" stroke="#fff" stroke-width="0.5"/>
    <line x1="200" y1="0" x2="200" y2="620" stroke="#fff" stroke-width="0.5"/>
    <line x1="250" y1="0" x2="250" y2="620" stroke="#fff" stroke-width="0.5"/>
    <line x1="300" y1="0" x2="300" y2="620" stroke="#fff" stroke-width="0.5"/>
    <line x1="350" y1="0" x2="350" y2="620" stroke="#fff" stroke-width="0.5"/>
    <line x1="400" y1="0" x2="400" y2="620" stroke="#fff" stroke-width="0.5"/>
    <line x1="450" y1="0" x2="450" y2="620" stroke="#fff" stroke-width="0.5"/>
    <line x1="500" y1="0" x2="500" y2="620" stroke="#fff" stroke-width="0.5"/>
    <line x1="550" y1="0" x2="550" y2="620" stroke="#fff" stroke-width="0.5"/>
    <line x1="600" y1="0" x2="600" y2="620" stroke="#fff" stroke-width="0.5"/>
    <line x1="650" y1="0" x2="650" y2="620" stroke="#fff" stroke-width="0.5"/>
    <line x1="700" y1="0" x2="700" y2="620" stroke="#fff" stroke-width="0.5"/>
    <line x1="750" y1="0" x2="750" y2="620" stroke="#fff" stroke-width="0.5"/>
    <line x1="800" y1="0" x2="800" y2="620" stroke="#fff" stroke-width="0.5"/>
    <line x1="850" y1="0" x2="850" y2="620" stroke="#fff" stroke-width="0.5"/>
  </g>

  <!-- Decorative corner accents -->
  <path d="M 20 60 L 20 20 L 60 20" fill="none" stroke="#F59E0B" stroke-width="2.5" opacity="0.7"/>
  <path d="M 840 20 L 880 20 L 880 60" fill="none" stroke="#F59E0B" stroke-width="2.5" opacity="0.7"/>
  <path d="M 20 560 L 20 600 L 60 600" fill="none" stroke="#F59E0B" stroke-width="2.5" opacity="0.7"/>
  <path d="M 840 600 L 880 600 L 880 560" fill="none" stroke="#F59E0B" stroke-width="2.5" opacity="0.7"/>

  <!-- ==================== CENTRAL LOGO ICON ==================== -->
  <g transform="translate(450, 155)" filter="url(#glow)">
    <!-- Infinity loop (DevOps symbol) -->
    <path d="M -90 0 
             C -90 -50, -40 -50, 0 -22 
             C 40 -50, 90 -50, 90 0 
             C 90 50, 40 50, 0 22 
             C -40 50, -90 50, -90 0 Z" 
          fill="none" stroke="url(#loopGradient)" stroke-width="8" stroke-linecap="round"/>

    <!-- Dev side icon (code brackets) -->
    <text x="-52" y="9" font-family="monospace" font-size="30" fill="#00B4D8" font-weight="bold" text-anchor="middle">&lt;/&gt;</text>

    <!-- Ops side icon (gear) -->
    <g transform="translate(52, 0)">
      <circle cx="0" cy="0" r="11" fill="none" stroke="#FF6B6B" stroke-width="2.5"/>
      <circle cx="0" cy="0" r="4.5" fill="#FF6B6B"/>
      <line x1="0" y1="-15" x2="0" y2="-11" stroke="#FF6B6B" stroke-width="2.5" stroke-linecap="round"/>
      <line x1="0" y1="11" x2="0" y2="15" stroke="#FF6B6B" stroke-width="2.5" stroke-linecap="round"/>
      <line x1="-15" y1="0" x2="-11" y2="0" stroke="#FF6B6B" stroke-width="2.5" stroke-linecap="round"/>
      <line x1="11" y1="0" x2="15" y2="0" stroke="#FF6B6B" stroke-width="2.5" stroke-linecap="round"/>
      <line x1="-11" y1="-11" x2="-8" y2="-8" stroke="#FF6B6B" stroke-width="2.5" stroke-linecap="round"/>
      <line x1="8" y1="8" x2="11" y2="11" stroke="#FF6B6B" stroke-width="2.5" stroke-linecap="round"/>
      <line x1="11" y1="-11" x2="8" y2="-8" stroke="#FF6B6B" stroke-width="2.5" stroke-linecap="round"/>
      <line x1="-8" y1="8" x2="-11" y2="11" stroke="#FF6B6B" stroke-width="2.5" stroke-linecap="round"/>
    </g>

    <!-- AI brain icon above the loop -->
    <g transform="translate(0, -65)" opacity="0.85">
      <circle cx="0" cy="0" r="13" fill="none" stroke="url(#aiGrad)" stroke-width="1.5"/>
      <circle cx="-4" cy="-3" r="2" fill="#00F5A0"/>
      <circle cx="4" cy="-3" r="2" fill="#00D9F5"/>
      <path d="M -5 4 Q 0 8 5 4" fill="none" stroke="#00F5A0" stroke-width="1.2"/>
      <line x1="-10" y1="-6" x2="-16" y2="-11" stroke="#00F5A0" stroke-width="1" opacity="0.6"/>
      <line x1="10" y1="-6" x2="16" y2="-11" stroke="#00D9F5" stroke-width="1" opacity="0.6"/>
      <line x1="-8" y1="7" x2="-14" y2="12" stroke="#00F5A0" stroke-width="1" opacity="0.6"/>
      <line x1="8" y1="7" x2="14" y2="12" stroke="#00D9F5" stroke-width="1" opacity="0.6"/>
      <circle cx="-16" cy="-11" r="1.8" fill="#00F5A0" opacity="0.5"/>
      <circle cx="16" cy="-11" r="1.8" fill="#00D9F5" opacity="0.5"/>
      <circle cx="-14" cy="12" r="1.8" fill="#00F5A0" opacity="0.5"/>
      <circle cx="14" cy="12" r="1.8" fill="#00D9F5" opacity="0.5"/>
    </g>

    <!-- CI/CD pipeline dots -->
    <circle cx="-75" cy="-33" r="4" fill="#00B4D8" opacity="0.8"/>
    <circle cx="0" cy="-40" r="4" fill="#6C63FF" opacity="0.8"/>
    <circle cx="75" cy="-33" r="4" fill="#FF6B6B" opacity="0.8"/>
  </g>

  <!-- ==================== TEXT: ELITE ==================== -->
  <text x="450" y="258" text-anchor="middle" font-family="'Segoe UI', Arial, sans-serif" font-size="18" font-weight="700" letter-spacing="16" fill="url(#goldGrad)" filter="url(#glow)">ELITE</text>

  <!-- ==================== TEXT: DevOps ==================== -->
  <text x="440" y="322" text-anchor="middle" font-family="'Segoe UI', Arial, sans-serif" font-size="78" font-weight="900" letter-spacing="3" fill="#FFFFFF" filter="url(#shadow)">
    Dev<tspan fill="url(#loopGradient)">Ops</tspan>
  </text>

  <!-- "PRO" badge -->
  <g transform="translate(668, 290)">
    <rect x="0" y="0" width="65" height="30" rx="5" fill="url(#goldGrad)"/>
    <text x="32" y="21" text-anchor="middle" font-family="'Segoe UI', Arial, sans-serif" font-size="17" font-weight="900" fill="#0B1120" letter-spacing="4">PRO</text>
  </g>

  <!-- Divider line -->
  <line x1="220" y1="345" x2="680" y2="345" stroke="url(#loopGradient)" stroke-width="2" opacity="0.4"/>

  <!-- ==================== TAGLINE ==================== -->
  <text x="450" y="378" text-anchor="middle" font-family="'Segoe UI', Arial, sans-serif" font-size="15" font-weight="400" letter-spacing="6" fill="#94A3B8">LEARN  ·  BUILD  ·  DEPLOY  ·  AUTOMATE</text>

  <!-- ==================== REAL-TIME PROJECTS PILL ==================== -->
  <g transform="translate(450, 414)">
    <rect x="-155" y="-18" width="310" height="34" rx="17" fill="none" stroke="#6C63FF" stroke-width="1.5" opacity="0.6"/>
    <text x="0" y="5" text-anchor="middle" font-family="'Segoe UI', Arial, sans-serif" font-size="13" font-weight="600" letter-spacing="4" fill="#A78BFA">★  REAL-TIME PROJECTS  ★</text>
  </g>

  <!-- ==================== ROW 1: Core DevOps Stack ==================== -->
  <g transform="translate(450, 462)">
    <g transform="translate(-360, 0)" filter="url(#pillShadow)">
      <rect x="-38" y="-13" width="76" height="26" rx="13" fill="#1A2744" stroke="#FF9900" stroke-width="1"/>
      <text x="0" y="5" text-anchor="middle" font-family="'Segoe UI', Arial, sans-serif" font-size="11" font-weight="700" fill="#FF9900" letter-spacing="1">AWS</text>
    </g>
    <g transform="translate(-265, 0)" filter="url(#pillShadow)">
      <rect x="-42" y="-13" width="84" height="26" rx="13" fill="#1A2744" stroke="#2496ED" stroke-width="1"/>
      <text x="0" y="5" text-anchor="middle" font-family="'Segoe UI', Arial, sans-serif" font-size="11" font-weight="700" fill="#2496ED" letter-spacing="1">DOCKER</text>
    </g>
    <g transform="translate(-172, 0)" filter="url(#pillShadow)">
      <rect x="-30" y="-13" width="60" height="26" rx="13" fill="#1A2744" stroke="#326CE5" stroke-width="1"/>
      <text x="0" y="5" text-anchor="middle" font-family="'Segoe UI', Arial, sans-serif" font-size="11" font-weight="700" fill="#326CE5" letter-spacing="1">K8s</text>
    </g>
    <g transform="translate(-80, 0)" filter="url(#pillShadow)">
      <rect x="-50" y="-13" width="100" height="26" rx="13" fill="#1A2744" stroke="#7B42BC" stroke-width="1"/>
      <text x="0" y="5" text-anchor="middle" font-family="'Segoe UI', Arial, sans-serif" font-size="11" font-weight="700" fill="#7B42BC" letter-spacing="1">TERRAFORM</text>
    </g>
    <g transform="translate(28, 0)" filter="url(#pillShadow)">
      <rect x="-42" y="-13" width="84" height="26" rx="13" fill="#1A2744" stroke="#D33833" stroke-width="1"/>
      <text x="0" y="5" text-anchor="middle" font-family="'Segoe UI', Arial, sans-serif" font-size="11" font-weight="700" fill="#D33833" letter-spacing="1">JENKINS</text>
    </g>
    <g transform="translate(122, 0)" filter="url(#pillShadow)">
      <rect x="-42" y="-13" width="84" height="26" rx="13" fill="#1A2744" stroke="#EE0000" stroke-width="1"/>
      <text x="0" y="5" text-anchor="middle" font-family="'Segoe UI', Arial, sans-serif" font-size="11" font-weight="700" fill="#EE0000" letter-spacing="1">ANSIBLE</text>
    </g>
    <g transform="translate(215, 0)" filter="url(#pillShadow)">
      <rect x="-42" y="-13" width="84" height="26" rx="13" fill="#1A2744" stroke="#3776AB" stroke-width="1"/>
      <text x="0" y="5" text-anchor="middle" font-family="'Segoe UI', Arial, sans-serif" font-size="11" font-weight="700" fill="#3776AB" letter-spacing="1">PYTHON</text>
    </g>
    <g transform="translate(300, 0)" filter="url(#pillShadow)">
      <rect x="-30" y="-13" width="60" height="26" rx="13" fill="#1A2744" stroke="#F05032" stroke-width="1"/>
      <text x="0" y="5" text-anchor="middle" font-family="'Segoe UI', Arial, sans-serif" font-size="11" font-weight="700" fill="#F05032" letter-spacing="1">GIT</text>
    </g>
    <g transform="translate(375, 0)" filter="url(#pillShadow)">
      <rect x="-35" y="-13" width="70" height="26" rx="13" fill="#1A2744" stroke="#47A248" stroke-width="1"/>
      <text x="0" y="5" text-anchor="middle" font-family="'Segoe UI', Arial, sans-serif" font-size="11" font-weight="700" fill="#47A248" letter-spacing="1">LINUX</text>
    </g>
  </g>

  <!-- ==================== ROW 2: AI, Security, SRE, Advanced ==================== -->
  <g transform="translate(450, 500)">
    <!-- AIOps (highlighted) -->
    <g transform="translate(-365, 0)" filter="url(#softGlow)">
      <rect x="-40" y="-13" width="80" height="26" rx="13" fill="#0D3B2E" stroke="url(#aiGrad)" stroke-width="1.5"/>
      <text x="0" y="5" text-anchor="middle" font-family="'Segoe UI', Arial, sans-serif" font-size="11" font-weight="800" fill="#00F5A0" letter-spacing="1">AIOps</text>
    </g>
    <!-- GenAI -->
    <g transform="translate(-270, 0)" filter="url(#softGlow)">
      <rect x="-35" y="-13" width="70" height="26" rx="13" fill="#0D3B2E" stroke="url(#aiGrad)" stroke-width="1.5"/>
      <text x="0" y="5" text-anchor="middle" font-family="'Segoe UI', Arial, sans-serif" font-size="11" font-weight="800" fill="#00D9F5" letter-spacing="1">GenAI</text>
    </g>
    <!-- DevSecOps -->
    <g transform="translate(-170, 0)" filter="url(#pillShadow)">
      <rect x="-50" y="-13" width="100" height="26" rx="13" fill="#2A1215" stroke="url(#secGrad)" stroke-width="1.2"/>
      <text x="0" y="5" text-anchor="middle" font-family="'Segoe UI', Arial, sans-serif" font-size="11" font-weight="700" fill="#F87171" letter-spacing="1">DevSecOps</text>
    </g>
    <!-- SRE -->
    <g transform="translate(-80, 0)" filter="url(#pillShadow)">
      <rect x="-28" y="-13" width="56" height="26" rx="13" fill="#1A2744" stroke="#10B981" stroke-width="1"/>
      <text x="0" y="5" text-anchor="middle" font-family="'Segoe UI', Arial, sans-serif" font-size="11" font-weight="700" fill="#10B981" letter-spacing="1">SRE</text>
    </g>
    <!-- GH ACTIONS -->
    <g transform="translate(18, 0)" filter="url(#pillShadow)">
      <rect x="-52" y="-13" width="104" height="26" rx="13" fill="#1A2744" stroke="#2088FF" stroke-width="1"/>
      <text x="0" y="5" text-anchor="middle" font-family="'Segoe UI', Arial, sans-serif" font-size="10" font-weight="700" fill="#2088FF" letter-spacing="1">GH ACTIONS</text>
    </g>
    <!-- ECS/EKS -->
    <g transform="translate(118, 0)" filter="url(#pillShadow)">
      <rect x="-38" y="-13" width="76" height="26" rx="13" fill="#1A2744" stroke="#FF9900" stroke-width="1"/>
      <text x="0" y="5" text-anchor="middle" font-family="'Segoe UI', Arial, sans-serif" font-size="11" font-weight="700" fill="#FF9900" letter-spacing="1">ECS/EKS</text>
    </g>
    <!-- LAMBDA -->
    <g transform="translate(208, 0)" filter="url(#pillShadow)">
      <rect x="-40" y="-13" width="80" height="26" rx="13" fill="#1A2744" stroke="#FF9900" stroke-width="1"/>
      <text x="0" y="5" text-anchor="middle" font-family="'Segoe UI', Arial, sans-serif" font-size="11" font-weight="700" fill="#FF9900" letter-spacing="1">LAMBDA</text>
    </g>
    <!-- PACKER -->
    <g transform="translate(298, 0)" filter="url(#pillShadow)">
      <rect x="-38" y="-13" width="76" height="26" rx="13" fill="#1A2744" stroke="#02A8EF" stroke-width="1"/>
      <text x="0" y="5" text-anchor="middle" font-family="'Segoe UI', Arial, sans-serif" font-size="11" font-weight="700" fill="#02A8EF" letter-spacing="1">PACKER</text>
    </g>
    <!-- LIQUIBASE -->
    <g transform="translate(388, 0)" filter="url(#pillShadow)">
      <rect x="-42" y="-13" width="84" height="26" rx="13" fill="#1A2744" stroke="#2962FF" stroke-width="1"/>
      <text x="0" y="5" text-anchor="middle" font-family="'Segoe UI', Arial, sans-serif" font-size="10" font-weight="700" fill="#2962FF" letter-spacing="1">LIQUIBASE</text>
    </g>
  </g>

  <!-- ==================== ROW 3: Monitoring, Observability, Emerging ==================== -->
  <g transform="translate(450, 538)">
    <!-- PROMETHEUS -->
    <g transform="translate(-350, 0)" filter="url(#pillShadow)">
      <rect x="-52" y="-13" width="104" height="26" rx="13" fill="#1A2744" stroke="#E6522C" stroke-width="1"/>
      <text x="0" y="5" text-anchor="middle" font-family="'Segoe UI', Arial, sans-serif" font-size="10" font-weight="700" fill="#E6522C" letter-spacing="1">PROMETHEUS</text>
    </g>
    <!-- GRAFANA -->
    <g transform="translate(-240, 0)" filter="url(#pillShadow)">
      <rect x="-42" y="-13" width="84" height="26" rx="13" fill="#1A2744" stroke="#F46800" stroke-width="1"/>
      <text x="0" y="5" text-anchor="middle" font-family="'Segoe UI', Arial, sans-serif" font-size="11" font-weight="700" fill="#F46800" letter-spacing="1">GRAFANA</text>
    </g>
    <!-- DATADOG -->
    <g transform="translate(-140, 0)" filter="url(#pillShadow)">
      <rect x="-42" y="-13" width="84" height="26" rx="13" fill="#1A2744" stroke="#632CA6" stroke-width="1"/>
      <text x="0" y="5" text-anchor="middle" font-family="'Segoe UI', Arial, sans-serif" font-size="11" font-weight="700" fill="#632CA6" letter-spacing="1">DATADOG</text>
    </g>
    <!-- CLOUDWATCH -->
    <g transform="translate(-35, 0)" filter="url(#pillShadow)">
      <rect x="-55" y="-13" width="110" height="26" rx="13" fill="#1A2744" stroke="#FF9900" stroke-width="1"/>
      <text x="0" y="5" text-anchor="middle" font-family="'Segoe UI', Arial, sans-serif" font-size="10" font-weight="700" fill="#FF9900" letter-spacing="1">CLOUDWATCH</text>
    </g>
    <!-- ARGOCD -->
    <g transform="translate(78, 0)" filter="url(#pillShadow)">
      <rect x="-38" y="-13" width="76" height="26" rx="13" fill="#1A2744" stroke="#EF7B4D" stroke-width="1"/>
      <text x="0" y="5" text-anchor="middle" font-family="'Segoe UI', Arial, sans-serif" font-size="11" font-weight="700" fill="#EF7B4D" letter-spacing="1">ArgoCD</text>
    </g>
    <!-- HELM -->
    <g transform="translate(163, 0)" filter="url(#pillShadow)">
      <rect x="-32" y="-13" width="64" height="26" rx="13" fill="#1A2744" stroke="#0F1689" stroke-width="1"/>
      <text x="0" y="5" text-anchor="middle" font-family="'Segoe UI', Arial, sans-serif" font-size="11" font-weight="700" fill="#277A9F" letter-spacing="1">HELM</text>
    </g>
    <!-- ISTIO -->
    <g transform="translate(238, 0)" filter="url(#pillShadow)">
      <rect x="-30" y="-13" width="60" height="26" rx="13" fill="#1A2744" stroke="#466BB0" stroke-width="1"/>
      <text x="0" y="5" text-anchor="middle" font-family="'Segoe UI', Arial, sans-serif" font-size="11" font-weight="700" fill="#466BB0" letter-spacing="1">ISTIO</text>
    </g>
    <!-- VAULT -->
    <g transform="translate(314, 0)" filter="url(#pillShadow)">
      <rect x="-33" y="-13" width="66" height="26" rx="13" fill="#1A2744" stroke="#FFEC6E" stroke-width="1"/>
      <text x="0" y="5" text-anchor="middle" font-family="'Segoe UI', Arial, sans-serif" font-size="11" font-weight="700" fill="#FFEC6E" letter-spacing="1">VAULT</text>
    </g>
    <!-- SONARQUBE -->
    <g transform="translate(400, 0)" filter="url(#pillShadow)">
      <rect x="-45" y="-13" width="90" height="26" rx="13" fill="#1A2744" stroke="#4E9BCD" stroke-width="1"/>
      <text x="0" y="5" text-anchor="middle" font-family="'Segoe UI', Arial, sans-serif" font-size="10" font-weight="700" fill="#4E9BCD" letter-spacing="1">SONARQUBE</text>
    </g>
  </g>

  <!-- ==================== BOTTOM BAR ==================== -->
  <g transform="translate(450, 587)">
    <text x="0" y="0" text-anchor="middle" font-family="'Segoe UI', Arial, sans-serif" font-size="10" font-weight="500" letter-spacing="2.5" fill="#475569">AWS · AZURE · GCP · CI/CD · IaC · CONTAINERS · SERVERLESS · SECURITY · OBSERVABILITY · NETWORKING</text>
  </g>
</svg>